<?xml version="1.0" encoding="UTF-8" standalone="no"?>
<!-- Created with Inkscape (http://www.inkscape.org/) -->

<svg
   version="1.1"
   id="svg1"
   width="254.49086"
   height="253.94209"
   viewBox="0 0 254.49086 253.94209"
   xmlns="http://www.w3.org/2000/svg"
   xmlns:svg="http://www.w3.org/2000/svg">
  <defs
     id="defs1">
    <clipPath
       clipPathUnits="userSpaceOnUse"
       id="clipPath66">
      <path
         d="M 0,190.457 H 415.199 V 0 H 0 Z"
         transform="translate(-84.3355,-173.9175)"
         id="path66" />
    </clipPath>
    <clipPath
       clipPathUnits="userSpaceOnUse"
       id="clipPath68">
      <path
         d="M 0,190.457 H 415.199 V 0 H 0 Z"
         transform="translate(-186.73701,-100.4684)"
         id="path68" />
    </clipPath>
    <clipPath
       clipPathUnits="userSpaceOnUse"
       id="clipPath70">
      <path
         d="M 0,190.457 H 415.199 V 0 H 0 Z"
         transform="translate(-141.4674,-117.9716)"
         id="path70" />
    </clipPath>
    <clipPath
       clipPathUnits="userSpaceOnUse"
       id="clipPath72">
      <path
         d="M 0,190.457 H 415.199 V 0 H 0 Z"
         transform="translate(-158.01411,-114.5312)"
         id="path72" />
    </clipPath>
    <clipPath
       clipPathUnits="userSpaceOnUse"
       id="clipPath74">
      <path
         d="M 0,190.457 H 415.199 V 0 H 0 Z"
         transform="translate(-170.8659,-112.31201)"
         id="path74" />
    </clipPath>
    <clipPath
       clipPathUnits="userSpaceOnUse"
       id="clipPath76">
      <path
         d="M 0,190.457 H 415.199 V 0 H 0 Z"
         transform="translate(-159.4125,-101.8218)"
         id="path76" />
    </clipPath>
    <clipPath
       clipPathUnits="userSpaceOnUse"
       id="clipPath78">
      <path
         d="M 0,190.457 H 415.199 V 0 H 0 Z"
         transform="translate(-156.183,-102.6216)"
         id="path78" />
    </clipPath>
    <clipPath
       clipPathUnits="userSpaceOnUse"
       id="clipPath80">
      <path
         d="M 0,190.457 H 415.199 V 0 H 0 Z"
         transform="translate(-183.3747,-119.6215)"
         id="path80" />
    </clipPath>
    <clipPath
       clipPathUnits="userSpaceOnUse"
       id="clipPath82">
      <path
         d="M 0,190.457 H 415.199 V 0 H 0 Z"
         transform="translate(-188.1144,-97.6563)"
         id="path82" />
    </clipPath>
    <clipPath
       clipPathUnits="userSpaceOnUse"
       id="clipPath84">
      <path
         d="M 0,190.457 H 415.199 V 0 H 0 Z"
         transform="translate(-138.31161,-117.1481)"
         id="path84" />
    </clipPath>
    <clipPath
       clipPathUnits="userSpaceOnUse"
       id="clipPath86">
      <path
         d="M 0,190.457 H 415.199 V 0 H 0 Z"
         transform="translate(-161.2666,-117.0101)"
         id="path86" />
    </clipPath>
    <clipPath
       clipPathUnits="userSpaceOnUse"
       id="clipPath88">
      <path
         d="M 0,190.457 H 415.199 V 0 H 0 Z"
         transform="translate(-134.65491,-128.752)"
         id="path88" />
    </clipPath>
    <clipPath
       clipPathUnits="userSpaceOnUse"
       id="clipPath90">
      <path
         d="M 0,190.457 H 415.199 V 0 H 0 Z"
         transform="translate(-108.9948,-104.6457)"
         id="path90" />
    </clipPath>
    <clipPath
       clipPathUnits="userSpaceOnUse"
       id="clipPath92">
      <path
         d="M 0,190.457 H 415.199 V 0 H 0 Z"
         transform="translate(-108.9102,-100.8444)"
         id="path92" />
    </clipPath>
    <clipPath
       clipPathUnits="userSpaceOnUse"
       id="clipPath94">
      <path
         d="M 0,190.457 H 415.199 V 0 H 0 Z"
         transform="translate(-118.22721,-119.7653)"
         id="path94" />
    </clipPath>
    <clipPath
       clipPathUnits="userSpaceOnUse"
       id="clipPath96">
      <path
         d="M 0,190.457 H 415.199 V 0 H 0 Z"
         transform="translate(-119.9154,-107.6508)"
         id="path96" />
    </clipPath>
    <clipPath
       clipPathUnits="userSpaceOnUse"
       id="clipPath98">
      <path
         d="M 0,190.457 H 415.199 V 0 H 0 Z"
         transform="translate(-132.42051,-104.3373)"
         id="path98" />
    </clipPath>
    <clipPath
       clipPathUnits="userSpaceOnUse"
       id="clipPath100">
      <path
         d="M 0,190.457 H 415.199 V 0 H 0 Z"
         transform="translate(-107.1172,-111.0267)"
         id="path100" />
    </clipPath>
    <clipPath
       clipPathUnits="userSpaceOnUse"
       id="clipPath102">
      <path
         d="M 0,190.457 H 415.199 V 0 H 0 Z"
         transform="translate(-53.227001,-172.8385)"
         id="path102" />
    </clipPath>
    <clipPath
       clipPathUnits="userSpaceOnUse"
       id="clipPath104">
      <path
         d="M 0,190.457 H 415.199 V 0 H 0 Z"
         transform="translate(-51.637301,-162.195)"
         id="path104" />
    </clipPath>
    <clipPath
       clipPathUnits="userSpaceOnUse"
       id="clipPath106">
      <path
         d="M 0,190.457 H 415.199 V 0 H 0 Z"
         transform="translate(-55.177001,-166.7108)"
         id="path106" />
    </clipPath>
    <clipPath
       clipPathUnits="userSpaceOnUse"
       id="clipPath108">
      <path
         d="M 0,190.457 H 415.199 V 0 H 0 Z"
         transform="translate(-55.980301,-133.8495)"
         id="path108" />
    </clipPath>
    <clipPath
       clipPathUnits="userSpaceOnUse"
       id="clipPath110">
      <path
         d="M 0,190.457 H 415.199 V 0 H 0 Z"
         transform="translate(-30.794001,-148.2841)"
         id="path110" />
    </clipPath>
    <clipPath
       clipPathUnits="userSpaceOnUse"
       id="clipPath112">
      <path
         d="M 0,190.457 H 415.199 V 0 H 0 Z"
         transform="translate(-59.918201,-115.3755)"
         id="path112" />
    </clipPath>
    <clipPath
       clipPathUnits="userSpaceOnUse"
       id="clipPath114">
      <path
         d="M 0,190.457 H 415.199 V 0 H 0 Z"
         transform="translate(-82.7335,-128.7928)"
         id="path114" />
    </clipPath>
    <clipPath
       clipPathUnits="userSpaceOnUse"
       id="clipPath116">
      <path
         d="M 0,190.457 H 415.199 V 0 H 0 Z"
         transform="translate(-66.012902,-120.8111)"
         id="path116" />
    </clipPath>
    <clipPath
       clipPathUnits="userSpaceOnUse"
       id="clipPath118">
      <path
         d="M 0,190.457 H 415.199 V 0 H 0 Z"
         transform="translate(-73.442202,-130.8697)"
         id="path118" />
    </clipPath>
    <clipPath
       clipPathUnits="userSpaceOnUse"
       id="clipPath120">
      <path
         d="M 0,190.457 H 415.199 V 0 H 0 Z"
         transform="translate(-70.375502,-128.2722)"
         id="path120" />
    </clipPath>
    <clipPath
       clipPathUnits="userSpaceOnUse"
       id="clipPath122">
      <path
         d="M 0,190.457 H 415.199 V 0 H 0 Z"
         transform="translate(-3.9344001,-108.1248)"
         id="path122" />
    </clipPath>
    <clipPath
       clipPathUnits="userSpaceOnUse"
       id="clipPath124">
      <path
         d="M 0,190.457 H 415.199 V 0 H 0 Z"
         transform="translate(-7.8347004,-66.893099)"
         id="path124" />
    </clipPath>
    <clipPath
       clipPathUnits="userSpaceOnUse"
       id="clipPath126">
      <path
         d="M 0,190.457 H 415.199 V 0 H 0 Z"
         transform="translate(-6.6729002,-69.739199)"
         id="path126" />
    </clipPath>
    <clipPath
       clipPathUnits="userSpaceOnUse"
       id="clipPath128">
      <path
         d="M 0,190.457 H 415.199 V 0 H 0 Z"
         transform="translate(-12.047601,-64.827899)"
         id="path128" />
    </clipPath>
    <clipPath
       clipPathUnits="userSpaceOnUse"
       id="clipPath130">
      <path
         d="M 0,190.457 H 415.199 V 0 H 0 Z"
         transform="translate(-19.253901,-59.940299)"
         id="path130" />
    </clipPath>
    <clipPath
       clipPathUnits="userSpaceOnUse"
       id="clipPath132">
      <path
         d="M 0,190.457 H 415.199 V 0 H 0 Z"
         transform="translate(-6.7515002,-79.114004)"
         id="path132" />
    </clipPath>
    <clipPath
       clipPathUnits="userSpaceOnUse"
       id="clipPath134">
      <path
         d="M 0,190.457 H 415.199 V 0 H 0 Z"
         transform="translate(-30.406801,-82.215)"
         id="path134" />
    </clipPath>
    <clipPath
       clipPathUnits="userSpaceOnUse"
       id="clipPath136">
      <path
         d="M 0,190.457 H 415.199 V 0 H 0 Z"
         transform="translate(-43.317901,-87.278002)"
         id="path136" />
    </clipPath>
    <clipPath
       clipPathUnits="userSpaceOnUse"
       id="clipPath138">
      <path
         d="M 0,190.457 H 415.199 V 0 H 0 Z"
         transform="translate(-57.824302,-69.554602)"
         id="path138" />
    </clipPath>
    <clipPath
       clipPathUnits="userSpaceOnUse"
       id="clipPath140">
      <path
         d="M 0,190.457 H 415.199 V 0 H 0 Z"
         transform="translate(-10.1485,-83.693302)"
         id="path140" />
    </clipPath>
    <clipPath
       clipPathUnits="userSpaceOnUse"
       id="clipPath142">
      <path
         d="M 0,190.457 H 415.199 V 0 H 0 Z"
         transform="translate(-37.471301,-96.8028)"
         id="path142" />
    </clipPath>
    <clipPath
       clipPathUnits="userSpaceOnUse"
       id="clipPath144">
      <path
         d="M 0,190.457 H 415.199 V 0 H 0 Z"
         transform="translate(-6.7489001,-97.0833)"
         id="path144" />
    </clipPath>
    <clipPath
       clipPathUnits="userSpaceOnUse"
       id="clipPath146">
      <path
         d="M 0,190.457 H 415.199 V 0 H 0 Z"
         transform="translate(-58.789801,-15.864103)"
         id="path146" />
    </clipPath>
    <clipPath
       clipPathUnits="userSpaceOnUse"
       id="clipPath148">
      <path
         d="M 0,190.457 H 415.199 V 0 H 0 Z"
         transform="translate(-86.415902,-14.579698)"
         id="path148" />
    </clipPath>
    <clipPath
       clipPathUnits="userSpaceOnUse"
       id="clipPath150">
      <path
         d="M 0,190.457 H 415.199 V 0 H 0 Z"
         transform="translate(-78.432204,-48.483404)"
         id="path150" />
    </clipPath>
    <clipPath
       clipPathUnits="userSpaceOnUse"
       id="clipPath152">
      <path
         d="M 0,190.457 H 415.199 V 0 H 0 Z"
         transform="translate(-76.898799,-34.495798)"
         id="path152" />
    </clipPath>
    <clipPath
       clipPathUnits="userSpaceOnUse"
       id="clipPath154">
      <path
         d="M 0,190.457 H 415.199 V 0 H 0 Z"
         transform="translate(-79.509804,-32.234803)"
         id="path154" />
    </clipPath>
    <clipPath
       clipPathUnits="userSpaceOnUse"
       id="clipPath156">
      <path
         d="M 0,190.457 H 415.199 V 0 H 0 Z"
         transform="translate(-75.396699,-28.579498)"
         id="path156" />
    </clipPath>
    <clipPath
       clipPathUnits="userSpaceOnUse"
       id="clipPath158">
      <path
         d="M 0,190.457 H 415.199 V 0 H 0 Z"
         transform="translate(-92.7895,-13.373398)"
         id="path158" />
    </clipPath>
    <clipPath
       clipPathUnits="userSpaceOnUse"
       id="clipPath160">
      <path
         d="M 0,190.457 H 415.199 V 0 H 0 Z"
         transform="translate(-109.98351,-9.5078977)"
         id="path160" />
    </clipPath>
    <clipPath
       clipPathUnits="userSpaceOnUse"
       id="clipPath162">
      <path
         d="M 0,190.457 H 415.199 V 0 H 0 Z"
         transform="translate(-81.164102,-17.0789)"
         id="path162" />
    </clipPath>
    <clipPath
       clipPathUnits="userSpaceOnUse"
       id="clipPath164">
      <path
         d="M 0,190.457 H 415.199 V 0 H 0 Z"
         transform="translate(-82.166102,-25.237701)"
         id="path164" />
    </clipPath>
    <clipPath
       clipPathUnits="userSpaceOnUse"
       id="clipPath166">
      <path
         d="M 0,190.457 H 415.199 V 0 H 0 Z"
         transform="translate(-85.604305,-13.7972)"
         id="path166" />
    </clipPath>
    <clipPath
       clipPathUnits="userSpaceOnUse"
       id="clipPath168">
      <path
         d="M 0,190.457 H 415.199 V 0 H 0 Z"
         transform="translate(-75.393204,-31.331698)"
         id="path168" />
    </clipPath>
    <clipPath
       clipPathUnits="userSpaceOnUse"
       id="clipPath170">
      <path
         d="M 0,190.457 H 415.199 V 0 H 0 Z"
         transform="translate(-79.475199,-31.961803)"
         id="path170" />
    </clipPath>
    <clipPath
       clipPathUnits="userSpaceOnUse"
       id="clipPath172">
      <path
         d="M 0,190.457 H 415.199 V 0 H 0 Z"
         transform="translate(-76.455699,-48.197204)"
         id="path172" />
    </clipPath>
    <clipPath
       clipPathUnits="userSpaceOnUse"
       id="clipPath174">
      <path
         d="M 0,190.457 H 415.199 V 0 H 0 Z"
         transform="translate(-91.392902,-29.289598)"
         id="path174" />
    </clipPath>
    <clipPath
       clipPathUnits="userSpaceOnUse"
       id="clipPath176">
      <path
         d="M 0,190.457 H 415.199 V 0 H 0 Z"
         transform="translate(-68.736401,-24.120598)"
         id="path176" />
    </clipPath>
    <clipPath
       clipPathUnits="userSpaceOnUse"
       id="clipPath178">
      <path
         d="M 0,190.457 H 415.199 V 0 H 0 Z"
         transform="translate(-64.806502,-23.735203)"
         id="path178" />
    </clipPath>
    <clipPath
       clipPathUnits="userSpaceOnUse"
       id="clipPath180">
      <path
         d="M 0,190.457 H 415.199 V 0 H 0 Z"
         transform="translate(-64.924802,-28.218598)"
         id="path180" />
    </clipPath>
    <clipPath
       clipPathUnits="userSpaceOnUse"
       id="clipPath182">
      <path
         d="M 0,190.457 H 415.199 V 0 H 0 Z"
         transform="translate(-43.713901,-43.482801)"
         id="path182" />
    </clipPath>
  </defs>
  <g
     id="layer-MC0"
     transform="translate(-5.6184421e-5,-5.7281439e-4)">
    <path
       id="path65"
       d="m 0,0 c -2.889,-1.98 -4.417,-2.518 -6.801,-2.987 -0.376,-0.074 -0.777,-0.145 -1.19,-0.219 -2.28,-0.403 -4.827,-0.857 -6.179,-2.226 -1.537,1.007 -2.919,2.287 -4.085,3.973 1.255,0.932 3.907,2.681 6.789,3.235 3.658,0.704 6.828,1.769 10.207,4.555 C -0.24,4.109 0.104,2.022 0,0 m -2.949,-9.4 c -3.477,0.801 -6.858,1.586 -9.791,3.127 1.123,0.823 3.252,1.203 5.024,1.517 0.423,0.074 0.833,0.147 1.219,0.223 2.225,0.438 3.823,0.954 6.243,2.479 C -0.729,-4.516 -1.77,-6.919 -2.949,-9.4 m 11.39,-6.282 c -2.108,-1.046 -7.368,-3.33 -13.617,-3.673 0.819,2.674 2.03,5.188 3.224,7.662 0.017,0.036 0.035,0.072 0.052,0.108 3.801,-0.895 7.426,-1.903 10.341,-4.097 m 4.43,-5.611 c -5.38,-2.846 -16.045,-4.293 -19.05,-4.655 -0.023,1.628 0.164,3.182 0.496,4.679 7.74,0.27 14.02,3.366 15.658,4.247 1.128,-1.141 2.107,-2.537 2.896,-4.271 m 1.793,-6.671 c -7.07,-1.815 -17.142,-3.717 -19.751,-4.2 -0.261,0.788 -0.489,1.618 -0.674,2.5 -0.131,0.619 -0.227,1.227 -0.295,1.825 2.929,0.342 13.762,1.773 19.622,4.777 0.156,-0.463 0.304,-0.94 0.438,-1.444 0.314,-1.19 0.531,-2.342 0.66,-3.458 M 5.46,-45.307 c -1.835,1.487 -3.693,2.995 -5.376,4.749 2.301,0.709 7.341,1.938 12.728,1.179 -1.289,-2.816 -3.097,-5.378 -5.112,-7.773 -0.732,0.622 -1.484,1.231 -2.24,1.845 m 7.288,-11.711 c -0.828,-0.177 -1.568,-0.398 -2.289,-0.614 -1.471,-0.441 -2.861,-0.857 -4.777,-0.788 -1.768,0.064 -3.615,0.95 -4.609,1.505 0.672,0.699 1.376,1.413 2.1,2.149 1.532,1.556 3.143,3.193 4.698,4.938 2.18,-2.025 3.976,-4.237 4.877,-7.19 m -8.817,-7.717 c -3.242,-0.239 -6.617,0.56 -8.209,1.011 0.897,1.812 2.404,3.66 4.236,5.632 1.002,-0.596 3.327,-1.817 5.667,-1.902 2.176,-0.079 3.757,0.395 5.287,0.853 0.7,0.21 1.421,0.423 2.209,0.59 0.249,-1.357 0.322,-2.863 0.184,-4.559 -1.701,-0.416 -5.858,-1.366 -9.374,-1.625 m 9.618,27.158 c -6.719,1.08 -12.88,-0.756 -14.841,-1.437 -1.204,1.467 -2.27,3.119 -3.111,5.054 3.021,0.563 12.379,2.347 19.204,4.08 0.077,-2.777 -0.396,-5.327 -1.252,-7.697 M -8.128,16.228 c -0.072,-0.08 -0.128,-0.168 -0.168,-0.261 -0.155,-0.361 -0.072,-0.796 0.235,-1.074 2.836,-2.562 4.785,-4.915 6.059,-7.127 -3.229,-2.744 -6.15,-3.749 -9.762,-4.443 -3.129,-0.602 -5.917,-2.398 -7.324,-3.435 -0.318,0.573 -0.617,1.181 -0.891,1.837 -0.201,0.481 -0.755,0.708 -1.237,0.507 -0.235,-0.098 -0.41,-0.281 -0.504,-0.499 -0.097,-0.227 -0.106,-0.492 -0.003,-0.737 3.626,-8.677 10.858,-10.508 17.936,-12.143 -2.575,-5.34 -5.406,-11.391 -3.824,-18.907 1.8,-8.549 7.155,-12.891 11.88,-16.721 0.746,-0.606 1.481,-1.202 2.19,-1.804 -1.508,-1.687 -3.092,-3.296 -4.633,-4.861 -5.733,-5.823 -10.685,-10.85 -8.283,-16.798 0.196,-0.484 0.747,-0.718 1.231,-0.522 0.484,0.195 0.718,0.746 0.523,1.23 -0.593,1.467 -0.597,2.896 -0.164,4.333 1.627,-0.475 5.288,-1.377 8.914,-1.109 3.32,0.245 7.079,1.056 9.061,1.527 -0.246,-1.611 -0.667,-3.381 -1.292,-5.339 -0.245,-0.767 0.103,0.233 -0.206,-0.594 -0.182,-0.489 0.066,-1.033 0.555,-1.216 0.489,-0.182 1.029,0.061 1.216,0.555 0.323,0.863 -0.012,-0.098 0.245,0.707 3.847,12.074 0.445,17.706 -4.514,22.27 5.293,6.307 9.454,14.029 6.719,24.373 -2.67,10.097 -9.715,12.468 -16.897,14.183 3.669,7.793 6.112,15.438 -5.727,26.135 -0.387,0.35 -0.985,0.32 -1.335,-0.067"
       style="fill:#2d7464;fill-opacity:1;fill-rule:nonzero;stroke:none"
       transform="matrix(1.3333333,0,0,-1.3333333,112.44733,22.052667)"
       clip-path="url(#clipPath66)" />
    <path
       id="path67"
       d="m 0,0 -4.69,20.305 -8.925,-12.711 -1.425,1 11.168,15.909 5.569,-24.111 z"
       style="fill:#ef2e32;fill-opacity:1;fill-rule:nonzero;stroke:none"
       transform="matrix(1.3333333,0,0,-1.3333333,248.98267,119.9848)"
       clip-path="url(#clipPath68)" />
    <path
       id="path69"
       d="M 0,0 -3.067,9.277 -19.063,0.903 -19.871,2.447 -2.057,11.772 1.654,0.547 Z"
       style="fill:#ef2e32;fill-opacity:1;fill-rule:nonzero;stroke:none"
       transform="matrix(1.3333333,0,0,-1.3333333,188.6232,96.6472)"
       clip-path="url(#clipPath70)" />
    <path
       id="path71"
       d="m 0,0 -20.113,13.94 0.992,1.432 19.42,-13.46 23.889,7.262 0.507,-1.666 z"
       style="fill:#ef2e32;fill-opacity:1;fill-rule:nonzero;stroke:none"
       transform="matrix(1.3333333,0,0,-1.3333333,210.68547,101.2344)"
       clip-path="url(#clipPath72)" />
    <path
       id="path73"
       d="M 0,0 C 2.007,0.565 4.092,-0.605 4.656,-2.612 5.221,-4.619 4.051,-6.703 2.044,-7.268 0.037,-7.832 -2.047,-6.663 -2.612,-4.656 -3.176,-2.649 -2.007,-0.565 0,0"
       style="fill:#ef2e32;fill-opacity:1;fill-rule:nonzero;stroke:none"
       transform="matrix(1.3333333,0,0,-1.3333333,227.8212,104.19333)"
       clip-path="url(#clipPath74)" />
    <path
       id="path75"
       d="M 0,0 -16.584,13.247 -22.28,2.376 -23.823,3.184 -17.147,15.926 1.087,1.361 Z"
       style="fill:#ef2e32;fill-opacity:1;fill-rule:nonzero;stroke:none"
       transform="matrix(1.3333333,0,0,-1.3333333,212.55,118.18027)"
       clip-path="url(#clipPath76)" />
    <path
       id="path77"
       d="M 0,0 C -0.066,-2.084 1.57,-3.826 3.654,-3.892 5.738,-3.958 7.48,-2.322 7.546,-0.238 7.612,1.846 5.976,3.588 3.892,3.654 1.808,3.72 0.066,2.084 0,0"
       style="fill:#ef2e32;fill-opacity:1;fill-rule:nonzero;stroke:none"
       transform="matrix(1.3333333,0,0,-1.3333333,208.244,117.11387)"
       clip-path="url(#clipPath78)" />
    <path
       id="path79"
       d="M 0,0 C 2.007,0.565 3.176,2.649 2.612,4.656 2.047,6.663 -0.037,7.832 -2.044,7.268 -4.051,6.703 -5.221,4.619 -4.656,2.612 -4.092,0.605 -2.007,-0.565 0,0"
       style="fill:#ef2e32;fill-opacity:1;fill-rule:nonzero;stroke:none"
       transform="matrix(1.3333333,0,0,-1.3333333,244.4996,94.447333)"
       clip-path="url(#clipPath80)" />
    <path
       id="path81"
       d="M 0,0 C 2.007,0.565 3.176,2.649 2.612,4.656 2.047,6.663 -0.037,7.832 -2.044,7.268 -4.051,6.703 -5.221,4.619 -4.656,2.612 -4.092,0.605 -2.007,-0.565 0,0"
       style="fill:#ef2e32;fill-opacity:1;fill-rule:nonzero;stroke:none"
       transform="matrix(1.3333333,0,0,-1.3333333,250.8192,123.73427)"
       clip-path="url(#clipPath82)" />
    <path
       id="path83"
       d="M 0,0 C -0.066,-2.084 1.57,-3.826 3.654,-3.892 5.738,-3.958 7.48,-2.322 7.546,-0.238 7.612,1.846 5.976,3.588 3.892,3.654 1.808,3.72 0.066,2.084 0,0"
       style="fill:#ef2e32;fill-opacity:1;fill-rule:nonzero;stroke:none"
       transform="matrix(1.3333333,0,0,-1.3333333,184.41547,97.7452)"
       clip-path="url(#clipPath84)" />
    <path
       id="path85"
       d="m 0,0 c 1.019,-1.819 0.37,-4.119 -1.449,-5.138 -1.819,-1.019 -4.12,-0.37 -5.138,1.449 -1.019,1.819 -0.37,4.12 1.449,5.138 C -3.319,2.468 -1.019,1.819 0,0"
       style="fill:#ef2e32;fill-opacity:1;fill-rule:nonzero;stroke:none"
       transform="matrix(1.3333333,0,0,-1.3333333,215.02213,97.9292)"
       clip-path="url(#clipPath86)" />
    <path
       id="path87"
       d="M 0,0 C -0.066,-2.084 1.57,-3.826 3.654,-3.892 5.738,-3.958 7.48,-2.322 7.546,-0.238 7.612,1.846 5.976,3.588 3.892,3.654 1.808,3.72 0.066,2.084 0,0"
       style="fill:#ef2e32;fill-opacity:1;fill-rule:nonzero;stroke:none"
       transform="matrix(1.3333333,0,0,-1.3333333,179.53987,82.273333)"
       clip-path="url(#clipPath88)" />
    <path
       id="path89"
       d="M 0,0 -1.129,1.327 13.628,16.674 15.781,2.779 14.059,2.512 12.383,13.327 Z"
       style="fill:#ef2e32;fill-opacity:1;fill-rule:nonzero;stroke:none"
       transform="matrix(1.3333333,0,0,-1.3333333,145.3264,114.41507)"
       clip-path="url(#clipPath90)" />
    <path
       id="path91"
       d="M 0,0 C -2.041,-0.424 -4.04,0.887 -4.464,2.929 -4.887,4.97 -3.576,6.968 -1.535,7.392 0.506,7.816 2.505,6.505 2.929,4.464 3.352,2.422 2.041,0.424 0,0"
       style="fill:#ef2e32;fill-opacity:1;fill-rule:nonzero;stroke:none"
       transform="matrix(1.3333333,0,0,-1.3333333,145.2136,119.48347)"
       clip-path="url(#clipPath92)" />
    <path
       id="path93"
       d="M 0,0 C -0.066,-2.084 1.57,-3.826 3.654,-3.892 5.738,-3.958 7.48,-2.322 7.546,-0.238 7.612,1.846 5.976,3.588 3.892,3.654 1.808,3.72 0.066,2.084 0,0"
       style="fill:#ef2e32;fill-opacity:1;fill-rule:nonzero;stroke:none"
       transform="matrix(1.3333333,0,0,-1.3333333,157.63627,94.2556)"
       clip-path="url(#clipPath94)" />
    <path
       id="path95"
       d="M 0,0 C -0.066,-2.084 1.57,-3.826 3.654,-3.892 5.738,-3.958 7.48,-2.322 7.546,-0.238 7.612,1.846 5.976,3.588 3.892,3.654 1.808,3.72 0.066,2.084 0,0"
       style="fill:#ef2e32;fill-opacity:1;fill-rule:nonzero;stroke:none"
       transform="matrix(1.3333333,0,0,-1.3333333,159.8872,110.40827)"
       clip-path="url(#clipPath96)" />
    <path
       id="path97"
       d="M 0,0 C -0.066,-2.084 1.57,-3.826 3.654,-3.892 5.738,-3.958 7.48,-2.322 7.546,-0.238 7.612,1.846 5.976,3.588 3.892,3.654 1.808,3.72 0.066,2.084 0,0"
       style="fill:#ef2e32;fill-opacity:1;fill-rule:nonzero;stroke:none"
       transform="matrix(1.3333333,0,0,-1.3333333,176.56067,114.82627)"
       clip-path="url(#clipPath98)" />
    <path
       id="path99"
       d="m 0,0 c -3.519,2.187 -5.552,8.897 -4.956,16.853 0.269,3.594 4.327,9.695 5.441,15.701 1.099,5.922 -5.649,22.489 -10.064,22.244 -6.372,-0.353 -8.574,6.333 -7.888,8.335 1.273,3.715 9.018,-6.418 8.224,-2.66 -0.794,3.758 -6.88,10.636 -5.565,12.928 3.072,5.353 9.315,-7.968 9.588,-11.9 0.232,-3.348 3.838,-10.345 5.225,-8.846 1.388,1.5 -7.099,21.57 -3.943,25.033 3.155,3.462 3.754,-8.753 6.517,-7.375 2.763,1.379 3.366,10.899 6.433,8.301 C 12.079,76.016 9.615,61.237 7.195,58.102 4.774,54.967 1.32,50.197 2.89,46.344 c 1.57,-3.852 13.695,17.705 13.675,24.011 -0.02,6.305 3.056,7.97 5.402,4.023 2.347,-3.947 -0.469,-6.524 1.629,-7.938 2.099,-1.414 7.906,6.314 9.804,1.727 1.898,-4.588 -4.352,-6.052 -8.762,-8.018 C 20.228,58.184 12.339,55.939 8.912,44.783 5.308,33.047 3.83,20.183 6.268,19.655 c 2.439,-0.529 5.633,5.154 6.265,12.631 0.632,7.477 -0.867,8.865 1.238,14.356 2.105,5.49 6.483,12.141 8.31,10.018 1.828,-2.122 -1.7,-1.786 -2.742,-7.684 -1.043,-5.898 -4.893,-10.11 -2.903,-11.279 1.99,-1.169 4.192,2.456 5.509,6.42 1.317,3.965 -0.59,4.289 1.341,7.206 1.93,2.916 1.351,-3.362 2.877,-4.151 1.527,-0.788 2.188,4.647 3.579,3.504 1.39,-1.142 0.061,-6.728 -4.157,-9.783 -4.219,-3.055 -9.256,-10.777 -7.715,-12.587 1.541,-1.81 11.509,-1.348 15.079,6.506 1.499,3.299 2.841,14.154 0.182,17.815 -2.66,3.661 -6.283,5.858 -1.969,7.053 2.206,0.611 3.865,-2.299 6.342,-0.608 2.476,1.692 0.333,7.869 3.698,6.579 3.365,-1.291 -0.381,-8.862 -1.506,-13.916 -1.125,-5.054 -3.8,-12.56 -0.86,-11.25 2.94,1.311 6.12,8.356 7.886,12.961 1.765,4.605 2.757,6.662 4.339,4.431 1.582,-2.232 -5.696,-8.902 0.313,-12.244 1.657,-0.922 9.18,6.272 9.552,2.473 0.372,-3.799 -4.071,-8.841 -8.552,-8.342 -4.481,0.499 -10.743,-2.585 -10.4,-4.342 0.342,-1.756 11.808,-0.464 15.973,1.393 4.166,1.856 5.958,4.115 7.921,2.346 1.963,-1.768 -2.091,-3.566 -1.258,-5.104 0.832,-1.538 9.263,-0.669 8.707,-3.707 C 72.762,27.313 61.755,29.26 58.703,30.837 55.65,32.413 38.068,32.654 37.622,29.371 37.176,26.088 51.52,27.41 55.927,27.838 64.39,28.659 65.451,23.615 60.984,22.585 59.137,22.158 54.44,25.85 49.887,25.068 45.136,24.251 46.42,22.229 48.674,21.63 54.362,20.118 68.738,22.151 65.733,18.022 62.728,13.892 50.012,14.253 47.016,17.749 41.187,24.552 38.295,24.237 32.057,24.394 25.82,24.551 23.01,19.36 11.531,15.392 -1.696,10.82 3.628,-2.255 0,0"
       style="fill:#ef2e32;fill-opacity:1;fill-rule:nonzero;stroke:none"
       transform="matrix(1.3333333,0,0,-1.3333333,142.82293,105.90707)"
       clip-path="url(#clipPath100)" />
    <path
       id="path101"
       d="M 0,0 C 0.999,-0.032 1.882,-0.152 2.649,-0.312 2.244,0.205 1.773,0.807 1.223,1.512 c 0,0 -2.5,3.801 -3.815,3.867 C -2.6,5.38 -2.608,5.38 -2.617,5.38 -3.923,5.421 -5.246,3.536 -6.407,1.87 -6.916,1.14 -7.881,0.032 -8.808,-0.986 c 1.626,0.262 3.834,0.592 6.219,0.872 C -1.715,-0.012 -0.844,0.027 0,0"
       style="fill:#2d7464;fill-opacity:1;fill-rule:nonzero;stroke:none"
       transform="matrix(1.3333333,0,0,-1.3333333,70.969333,23.491333)"
       clip-path="url(#clipPath102)" />
    <path
       id="path103"
       d="m 0,0 c 5.608,-0.424 9.077,-1.135 11.005,-1.659 -0.217,0.598 -0.385,1.19 -0.408,1.631 C 10.552,0.868 10.056,3.052 8.924,4.907 7.334,4.095 5.231,3.983 3.526,4.002 c -7.114,0.157 -15.199,1.594 -21.14,-3.256 -0.253,-0.21 -0.496,-0.432 -0.734,-0.661 -0.169,-0.307 -0.319,-0.618 -0.44,-0.933 -0.43,-1.118 -0.761,-2.026 -1.018,-2.76 3.369,1.242 11.474,3.895 18.69,3.667 C -0.738,0.047 -0.363,0.028 0,0"
       style="fill:#2d7464;fill-opacity:1;fill-rule:nonzero;stroke:none"
       transform="matrix(1.3333333,0,0,-1.3333333,68.849733,37.682667)"
       clip-path="url(#clipPath104)" />
    <path
       id="path105"
       d="M 0,0 C 1.663,-0.088 3.687,-0.087 5.249,0.615 4.681,1.49 3.965,2.275 3.079,2.79 3.079,2.79 3.05,2.808 2.995,2.841 2.603,3.068 0.856,3.983 -2.015,4.074 -2.711,4.096 -3.474,4.069 -4.3,3.973 -9.014,3.42 -13.097,2.654 -13.097,2.654 -14.631,2.156 -17.442,0.544 -19.63,-1.579 -14.254,1.867 -6.611,0.4 0,0"
       style="fill:#2d7464;fill-opacity:1;fill-rule:nonzero;stroke:none"
       transform="matrix(1.3333333,0,0,-1.3333333,73.569333,31.6616)"
       clip-path="url(#clipPath106)" />
    <path
       id="path107"
       d="m 0,0 3.824,-1.143 c 0.366,-0.026 2.088,0.207 5.752,1.176 3.664,0.969 8.418,4.556 8.391,10.25 -0.004,0.862 -0.08,1.669 -0.204,2.435 -0.601,-0.76 -1.807,-0.717 -3.076,-0.368 -1.493,0.391 -2.928,0.966 -4.366,1.497 -3.804,1.443 -7.646,2.758 -11.608,3.425 -5.957,1.097 -12.027,0.326 -17.557,-2.024 -3.713,-1.45 -7.255,-3.363 -10.423,-5.764 -8.203,-6.112 -12.512,-15.611 -11.047,-25.839 0.492,-3.957 1.873,-9.325 3.534,-13.032 2.203,-2.27 4.097,-3.477 5.015,-3.225 1.85,0.508 -2.323,8.108 1.997,18.308 C -24.743,-2.443 -15.491,3.597 0,0"
       style="fill:#2d7464;fill-opacity:1;fill-rule:nonzero;stroke:none"
       transform="matrix(1.3333333,0,0,-1.3333333,74.6404,75.476667)"
       clip-path="url(#clipPath108)" />
    <path
       id="path109"
       d="m 0,0 c 10.341,5.247 19.071,6.255 30.075,2.367 2.907,-1.003 5.68,-2.296 8.525,-3.42 2.592,-1.045 3.823,-1.02 4.233,-0.027 -1.72,8.25 -9.87,10.81 -9.87,10.81 0,0 -3.235,1.448 -12.275,2.132 -0.339,0.026 -0.68,0.044 -1.026,0.054 C 11.639,12.17 2.206,8.576 0.507,7.9 0.332,7.83 0.239,7.791 0.239,7.791 c 0,0 -25.216,-7.625 -22.855,-30.035 0.823,-7.814 6.023,-16.145 10.384,-20.901 C -21.318,-27.122 -16.792,-8.432 0,0"
       style="fill:#2d7464;fill-opacity:1;fill-rule:nonzero;stroke:none"
       transform="matrix(1.3333333,0,0,-1.3333333,41.058667,56.230533)"
       clip-path="url(#clipPath110)" />
    <path
       id="path111"
       d="m 0,0 c -0.447,3.647 -2.158,7.436 -5.538,9.208 -5.712,3.239 -12.989,1.64 -18.027,-2.218 -4.111,-3.08 -7.034,-7.563 -8.698,-12.409 1.48,1.207 3.783,2.146 7.366,2.033 0.671,-0.021 1.386,-0.079 2.149,-0.179 2.815,-0.329 5.484,-1.428 7.714,-3.177 2.774,-1.974 5.842,-3.489 9.083,-4.506 0.852,0.352 1.656,0.781 2.37,1.317 C -0.486,-7.699 0.506,-3.637 0,0"
       style="fill:#2d7464;fill-opacity:1;fill-rule:nonzero;stroke:none"
       transform="matrix(1.3333333,0,0,-1.3333333,79.890933,100.10867)"
       clip-path="url(#clipPath112)" />
    <path
       id="path113"
       d="m 0,0 c -0.289,0.505 -0.791,0.841 -1.993,0.879 -0.168,0.005 -0.349,0.005 -0.545,-0.002 0.496,-0.576 0.94,-1.195 1.325,-1.85 0.245,-0.419 0.461,-0.854 0.646,-1.302 C 0.014,-1.632 0.459,-0.803 0,0"
       style="fill:#2d7464;fill-opacity:1;fill-rule:nonzero;stroke:none"
       transform="matrix(1.3333333,0,0,-1.3333333,110.31133,82.218933)"
       clip-path="url(#clipPath114)" />
    <path
       id="path115"
       d="m 0,0 c -0.731,2.983 -3.61,10.132 -14.528,12.083 -0.902,0.166 -1.812,0.263 -2.723,0.291 -1.878,0.06 -3.76,-0.172 -5.577,-0.69 -2.7,-0.769 -5.185,-2.151 -7.263,-4.038 -0.077,-0.068 -0.154,-0.137 -0.23,-0.207 -4.795,-4.36 -7.695,-10.914 -8.329,-18.543 0.011,0.01 0.022,0.019 0.032,0.029 1.465,5.097 4.336,9.858 8.506,13.21 5.204,4.285 12.929,6.057 19.094,2.769 7.526,-3.693 9.728,-16.605 1.824,-21.032 -0.647,-0.352 -1.329,-0.616 -2.024,-0.803 0.343,-0.098 0.685,-0.197 1.032,-0.284 v 0.001 c 1.293,-0.366 2.547,-0.565 3.736,-0.602 3.32,-0.105 6.134,1.046 7.881,3.314 2.366,3.08 2.255,7.486 -0.298,11.787 C 0.623,-1.871 0.241,-0.956 0,0"
       style="fill:#2d7464;fill-opacity:1;fill-rule:nonzero;stroke:none"
       transform="matrix(1.3333333,0,0,-1.3333333,88.0172,92.8612)"
       clip-path="url(#clipPath116)" />
    <path
       id="path117"
       d="m 0,0 c -0.278,0.042 -0.559,0.068 -0.839,0.077 -0.537,0.017 -1.076,-0.028 -1.604,-0.133 0.262,-0.165 0.523,-0.334 0.78,-0.512 3.473,-2.402 5.728,-5.513 6.347,-8.66 0.629,0.037 1.216,0.326 1.628,0.801 v 0 c 0.781,0.923 0.652,2.39 -0.365,4.132 C 4.729,-2.027 2.536,-0.443 0,0"
       style="fill:#2d7464;fill-opacity:1;fill-rule:nonzero;stroke:none"
       transform="matrix(1.3333333,0,0,-1.3333333,97.922933,79.449733)"
       clip-path="url(#clipPath118)" />
    <path
       id="path119"
       d="m 0,0 c -2.572,1.824 -5.597,2.906 -8.743,3.125 3.366,-2.432 5.766,-5.972 6.777,-9.999 0.184,-0.719 0.473,-1.407 0.858,-2.042 0.915,-1.519 1.583,-3.173 1.981,-4.901 1.321,0.238 2.533,0.887 3.464,1.855 v -10e-4 c 0.933,1.168 1.337,2.672 1.112,4.15 C 5.212,-5.117 3.175,-2.196 0,0"
       style="fill:#2d7464;fill-opacity:1;fill-rule:nonzero;stroke:none"
       transform="matrix(1.3333333,0,0,-1.3333333,93.834,82.913067)"
       clip-path="url(#clipPath120)" />
    <path
       id="path121"
       d="m 0,0 c -0.162,0 -0.316,-0.029 -0.463,-0.087 -3.155,-1.251 -3.507,-15.051 -1.695,-25.644 0.904,-5.286 5.432,-8.533 13.458,-9.65 2.253,-0.313 4.68,-0.442 7.028,-0.566 5.378,-0.284 10.458,-0.552 13.746,-2.869 3.122,-2.199 1.104,-7.296 -1.451,-13.747 -4.536,-11.456 -10.748,-27.144 6.875,-37.934 3.342,-2.046 5.636,-2.71 7.219,-2.092 1.994,0.78 2.792,3.595 3.802,7.159 0.444,1.568 0.904,3.19 1.525,4.864 1.42,3.831 4.041,4.409 6.816,5.022 2.289,0.505 4.657,1.027 6.746,3.381 1.817,2.048 2.514,4.808 3.189,7.477 0.881,3.483 1.712,6.772 4.939,7.999 2.171,0.826 3.977,1.385 5.569,1.879 7.152,2.216 8.641,2.677 11.71,19.128 1.638,8.781 6.745,14.025 10.124,17.495 1.762,1.811 3.155,3.241 2.922,4.157 -0.151,0.594 -1.015,1.129 -2.643,1.634 -7.126,2.211 -13.151,0.693 -19.528,-0.916 -5.446,-1.373 -11.077,-2.793 -17.855,-2.057 -12.345,1.339 -17.43,4.771 -21.917,7.8 -2.899,1.956 -5.402,3.646 -9.43,4.518 -1.146,0.249 -1.975,0.179 -2.529,-0.212 -0.934,-0.658 -1.144,-2.277 -1.387,-4.151 -0.32,-2.468 -0.718,-5.54 -2.952,-7.915 -1.374,-1.46 -2.99,-2.121 -4.802,-1.968 -4.194,0.356 -9.274,4.992 -15.098,13.778 C 2.383,-1.2 1.041,0 0,0 m 43.472,-93.493 c -1.624,0 -3.682,0.79 -6.332,2.412 -8.021,4.911 -11.971,11.211 -12.076,19.261 -0.089,6.853 2.69,13.87 4.923,19.509 2.443,6.172 4.374,11.046 1.693,12.935 -3.127,2.203 -8.111,2.467 -13.389,2.745 -2.361,0.125 -4.803,0.254 -7.086,0.572 -8.355,1.162 -13.078,4.598 -14.038,10.212 -1.709,9.995 -1.731,24.871 2.117,26.396 1.451,0.578 3.202,-0.665 5.206,-3.687 5.622,-8.482 10.665,-13.141 14.584,-13.475 1.593,-0.136 3.022,0.455 4.245,1.756 2.082,2.212 2.449,5.039 2.772,7.533 0.264,2.034 0.492,3.791 1.671,4.623 0.72,0.507 1.723,0.613 3.069,0.321 4.157,-0.9 6.834,-2.707 9.668,-4.62 4.421,-2.984 9.432,-6.366 21.608,-7.686 6.656,-0.723 12.226,0.682 17.614,2.04 6.474,1.633 12.589,3.174 19.898,0.906 1.926,-0.598 2.883,-1.251 3.104,-2.119 0.327,-1.288 -1.034,-2.687 -3.095,-4.804 -3.322,-3.411 -8.342,-8.566 -9.942,-17.142 -3.145,-16.858 -4.701,-17.34 -12.18,-19.658 -1.583,-0.49 -3.377,-1.046 -5.529,-1.864 -2.893,-1.101 -3.682,-4.222 -4.518,-7.527 -0.695,-2.749 -1.413,-5.591 -3.341,-7.763 -2.236,-2.521 -4.826,-3.092 -7.11,-3.596 -2.7,-0.596 -5.032,-1.11 -6.322,-4.591 -0.612,-1.649 -1.067,-3.257 -1.508,-4.813 -1.062,-3.746 -1.901,-6.706 -4.212,-7.61 -0.453,-0.177 -0.949,-0.266 -1.494,-0.266"
       style="fill:#24265d;fill-opacity:1;fill-rule:nonzero;stroke:none"
       transform="matrix(1.3333333,0,0,-1.3333333,5.2458667,109.77627)"
       clip-path="url(#clipPath122)" />
    <path
       id="path123"
       d="m 0,0 c -0.171,-1.694 3.29,-10.081 5.79,-15.054 3.105,-6.177 6.456,-11.418 7.795,-12.192 0.157,-0.09 0.44,-0.231 0.585,-0.168 0.487,0.215 0.904,2.13 1.346,4.157 0.441,2.027 0.99,4.55 1.948,7.604 0.422,1.345 1.051,2.884 1.659,4.374 1.239,3.03 2.779,6.801 1.904,7.843 -1.471,1.75 -3.32,1.569 -7.372,1.174 L 12.777,-2.346 C 10.425,-2.571 7.698,-1.859 4.814,-1.104 3.219,-0.687 1.573,-0.257 0,0 m 14.087,-28.63 c -0.337,0 -0.701,0.115 -1.101,0.346 -1.838,1.061 -5.476,7.139 -8.267,12.692 -1.003,1.996 -2.672,5.665 -3.919,8.813 -2.572,6.495 -2.014,7.262 -1.745,7.631 0.211,0.29 0.544,0.424 0.918,0.366 1.697,-0.261 3.449,-0.72 5.144,-1.163 2.779,-0.726 5.403,-1.41 7.546,-1.208 l 0.876,0.084 c 4.21,0.41 6.528,0.637 8.406,-1.596 1.341,-1.595 -0.142,-5.225 -1.712,-9.068 -0.599,-1.466 -1.218,-2.982 -1.625,-4.278 -0.942,-3.004 -1.485,-5.497 -1.921,-7.501 -0.637,-2.925 -0.988,-4.537 -2.032,-4.998 -0.181,-0.08 -0.37,-0.12 -0.568,-0.12"
       style="fill:#24265d;fill-opacity:1;fill-rule:nonzero;stroke:none"
       transform="matrix(1.3333333,0,0,-1.3333333,10.446267,164.75187)"
       clip-path="url(#clipPath124)" />
    <path
       id="path125"
       d="m 0,0 c -0.373,0 -0.664,-0.101 -0.87,-0.304 -0.856,-0.841 -0.544,-3.481 0.877,-7.434 1.078,-3 2.75,-6.781 4.837,-10.931 2.018,-4.015 5.893,-11.255 9.173,-14.63 1.291,-1.328 2.318,-1.903 2.975,-1.66 0.636,0.234 1.046,1.287 1.154,2.965 0.354,5.457 2.242,11.45 3.038,13.773 0.394,1.15 0.954,2.43 1.548,3.785 1.659,3.791 3.539,8.088 1.762,9.918 -1.953,2.01 -4.729,2.005 -8.556,2.008 C 12.057,-2.519 7.201,-2.513 1.364,-0.304 0.829,-0.101 0.373,0 0,0 m 16.672,-35.7 c -0.858,0 -1.894,0.635 -3.146,1.923 -3.344,3.441 -7.258,10.75 -9.294,14.8 -2.099,4.175 -3.783,7.981 -4.87,11.007 -1.56,4.341 -1.8,7.085 -0.712,8.154 0.619,0.61 1.615,0.66 2.956,0.153 5.72,-2.165 10.496,-2.165 14.332,-2.162 3.861,-0.006 6.892,0.002 9.047,-2.216 2.098,-2.16 0.12,-6.681 -1.626,-10.669 -0.587,-1.342 -1.142,-2.61 -1.527,-3.733 -0.787,-2.297 -2.654,-8.221 -3.002,-13.595 -0.131,-2.022 -0.67,-3.221 -1.601,-3.564 -0.177,-0.065 -0.363,-0.098 -0.557,-0.098"
       style="fill:#24265d;fill-opacity:1;fill-rule:nonzero;stroke:none"
       transform="matrix(1.3333333,0,0,-1.3333333,8.8972,160.95707)"
       clip-path="url(#clipPath126)" />
    <path
       id="path127"
       d="m 0,0 v 0 0 c -0.691,0 -1.311,-0.35 -1.659,-0.936 -0.749,-1.259 -0.23,-2.747 3.084,-8.846 0.307,-0.565 0.572,-1.052 0.74,-1.379 0.468,-0.91 1.145,-2.304 1.861,-3.78 0.68,-1.401 1.384,-2.85 1.942,-3.952 0.992,-1.956 1.402,-2.766 2.579,-2.766 0.745,0 1.404,0.477 1.641,1.186 0.254,0.761 0.433,1.687 0.64,2.761 0.372,1.923 0.835,4.316 1.954,7.227 0.094,0.243 0.42,0.895 0.735,1.527 0.505,1.01 1.134,2.268 1.574,3.339 0.44,1.069 1.258,3.058 -0.256,4.076 -0.503,0.337 -1.132,0.475 -2.174,0.475 -0.714,0 -1.566,-0.063 -2.467,-0.129 -0.92,-0.068 -1.87,-0.138 -2.658,-0.138 -0.247,0 -0.467,0.007 -0.654,0.021 C 5.076,-1.178 4.113,-0.93 2.895,-0.615 2.2,-0.436 1.413,-0.232 0.403,-0.039 0.268,-0.013 0.133,0 0,0 m 0,-1.712 c 0.025,0 0.051,-0.003 0.08,-0.009 2.659,-0.509 3.613,-1.071 6.674,-1.3 0.242,-0.018 0.505,-0.026 0.782,-0.026 1.629,0 3.762,0.267 5.125,0.267 0.577,0 1.016,-0.048 1.219,-0.185 0.738,-0.496 -2.242,-5.725 -2.696,-6.906 -1.806,-4.698 -1.998,-8.194 -2.62,-10.06 -0.004,-0.01 -0.009,-0.015 -0.017,-0.015 -0.286,0 -3.472,6.873 -4.859,9.569 C 2.683,-8.425 -1.227,-1.713 0,-1.712"
       style="fill:#24265d;fill-opacity:1;fill-rule:nonzero;stroke:none"
       transform="matrix(1.3333333,0,0,-1.3333333,16.063467,167.50547)"
       clip-path="url(#clipPath128)" />
    <path
       id="path129"
       d="m 0,0 c 1.474,-0.092 4.694,0.396 4.694,0.396 0,0 -2.019,-3.682 -2.601,-5.373 -0.583,-1.691 -1.584,-5.882 -1.584,-5.882 0,0 -1.05,3.518 -2.319,5.995 -0.959,1.874 -3.845,6.391 -3.845,6.391 0,0 2.94,-1.357 5.655,-1.527"
       style="fill:#24265d;fill-opacity:1;fill-rule:nonzero;stroke:none"
       transform="matrix(1.3333333,0,0,-1.3333333,25.671867,174.02227)"
       clip-path="url(#clipPath130)" />
    <path
       id="path131"
       d="m 0,0 c 2.162,-2.438 7.765,-4.138 14.621,-4.436 1.024,-0.045 2.018,-0.079 2.977,-0.111 8.85,-0.3 15.245,-0.517 16.255,-8.557 0.275,-2.193 -0.987,-5.622 -2.584,-9.964 -2.126,-5.777 -4.771,-12.966 -4.57,-19.714 0.234,-7.824 4.249,-13.415 12.276,-17.094 0.507,-0.233 0.782,-0.168 0.944,-0.099 0.848,0.36 1.519,2.271 2.296,4.483 0.928,2.64 2.082,5.926 4.235,9.059 1.908,2.775 4.419,3.05 6.634,3.293 1.889,0.207 3.673,0.402 5.049,2.065 1.105,1.337 1.521,3.311 1.961,5.401 0.661,3.137 1.409,6.692 4.722,8.964 3.469,2.378 6.3,3.413 8.575,4.245 3.219,1.176 5.162,1.886 6.594,5.331 1.806,4.346 2.35,7.583 2.831,10.439 0.627,3.728 1.168,6.949 4.123,11.381 1.466,2.199 3.232,4.048 4.651,5.534 1.568,1.641 2.922,3.059 2.94,3.985 0.003,0.134 -0.038,0.181 -0.082,0.221 -0.773,0.692 -4.809,0.174 -9.083,-0.374 -4.656,-0.598 -8.342,-1.428 -11.595,-2.161 -6.748,-1.52 -12.077,-2.719 -20.973,-0.542 -6.062,1.484 -12.139,4.856 -17.02,7.565 -3.704,2.056 -7.536,4.183 -8.548,3.62 C 27.168,22.501 26.986,22.4 26.957,21.854 26.587,14.83 24.975,11.337 21.392,9.797 11.546,5.566 4.427,15.41 0.602,20.697 -0.389,22.066 -1.504,23.607 -1.985,23.86 -2.191,23.613 -2.647,22.608 -2.968,19.993 -3.692,14.097 -3.249,3.664 0,0 m 39.604,-61.237 c -0.358,0 -0.735,0.09 -1.129,0.271 -19.191,8.796 -12.655,26.558 -8.331,38.312 1.48,4.023 2.758,7.498 2.519,9.401 -0.882,7.026 -6.236,7.207 -15.106,7.508 -0.963,0.033 -1.96,0.066 -2.988,0.111 -7.278,0.316 -13.06,2.125 -15.466,4.839 -4.413,4.976 -4.083,21.01 -2.386,24.783 0.328,0.729 0.749,1.098 1.251,1.098 0.9,0 1.755,-1.13 3.605,-3.687 3.884,-5.367 10.384,-14.351 19.346,-10.501 2.264,0.973 4.418,2.982 4.841,11.019 0.042,0.802 0.341,1.363 0.888,1.666 1.595,0.882 4.823,-0.909 9.71,-3.621 4.82,-2.674 10.818,-6.003 16.723,-7.448 8.624,-2.112 13.575,-0.997 20.426,0.547 3.278,0.738 6.993,1.575 11.705,2.179 5.981,0.769 8.906,1.093 10.036,0.078 0.323,-0.289 0.489,-0.682 0.481,-1.136 -0.028,-1.393 -1.389,-2.818 -3.272,-4.79 -1.459,-1.528 -3.113,-3.26 -4.521,-5.371 -2.812,-4.219 -3.334,-7.322 -3.938,-10.915 -0.491,-2.919 -1.048,-6.228 -2.906,-10.7 -1.634,-3.931 -4.006,-4.797 -7.289,-5.997 -2.212,-0.809 -4.965,-1.814 -8.309,-4.108 -2.917,-2 -3.583,-5.163 -4.227,-8.222 -0.472,-2.239 -0.917,-4.354 -2.21,-5.917 -1.686,-2.039 -3.799,-2.27 -5.842,-2.494 -2.15,-0.236 -4.181,-0.458 -5.777,-2.78 -2.063,-3.002 -3.188,-6.204 -4.092,-8.777 -0.942,-2.683 -1.623,-4.622 -2.959,-5.189 -0.248,-0.106 -0.51,-0.159 -0.783,-0.159"
       style="fill:#24265d;fill-opacity:1;fill-rule:nonzero;stroke:none"
       transform="matrix(1.3333333,0,0,-1.3333333,9.002,148.45733)"
       clip-path="url(#clipPath132)" />
    <path
       id="path133"
       d="m 0,0 c 0.388,-0.412 1.803,-1.262 4.688,-1.72 6.505,-1.036 9.983,-3.081 13.292,-7.814 3.15,-4.505 0.48,-10.729 -2.347,-17.317 -3.027,-7.054 -6.457,-15.049 -3.388,-22.127 0.185,-0.427 0.334,-0.681 0.437,-0.829 0.422,0.477 1.071,1.713 1.564,2.653 1.584,3.018 3.752,7.15 7.505,7.767 3.926,0.645 5.316,3.578 6.926,6.975 1.398,2.949 2.982,6.291 6.531,8.179 13.573,7.219 13.747,8.308 15.41,18.723 0.335,2.098 1.543,3.955 2.425,5.311 0.22,0.338 0.489,0.751 0.677,1.082 C 52.822,0.866 50.809,0.554 46.478,-0.507 37.13,-2.8 28.26,-1.837 21.503,2.2 19.724,3.263 18.052,4.355 16.578,5.319 14.126,6.921 10.771,9.11 10.02,8.791 10.024,8.791 9.772,8.503 9.847,7.197 10.024,4.1 7.079,1.813 1.093,0.401 0.477,0.256 0.157,0.1 0,0 m 12.652,-52.175 c -0.024,0 -0.049,0 -0.073,10e-4 -1.252,0.046 -1.956,1.341 -2.376,2.31 -3.451,7.959 0.18,16.423 3.384,23.89 2.687,6.264 5.009,11.674 2.569,15.164 -2.947,4.215 -5.929,5.954 -11.818,6.891 -3.165,0.504 -6.575,1.795 -6.653,3.908 -0.032,0.857 0.445,2 2.897,2.579 2.69,0.634 7.182,2.063 7.042,4.502 -0.069,1.208 -0.011,2.9 1.284,3.649 1.842,1.066 4.495,-0.666 8.888,-3.536 1.457,-0.953 3.108,-2.032 4.849,-3.072 6.252,-3.735 14.527,-4.607 23.303,-2.457 7.51,1.842 9.13,1.769 9.931,0.642 0.752,-1.061 -0.046,-2.288 -0.97,-3.709 -0.816,-1.255 -1.832,-2.817 -2.093,-4.448 -0.911,-5.704 -1.49,-8.811 -3.712,-11.623 -2.179,-2.757 -5.88,-5.006 -12.85,-8.714 -2.899,-1.542 -4.194,-4.275 -5.566,-7.168 -1.72,-3.63 -3.499,-7.383 -8.576,-8.218 -2.658,-0.437 -4.453,-3.856 -5.894,-6.604 -1.212,-2.309 -2.093,-3.987 -3.566,-3.987"
       style="fill:#24265d;fill-opacity:1;fill-rule:nonzero;stroke:none"
       transform="matrix(1.3333333,0,0,-1.3333333,40.5424,144.32267)"
       clip-path="url(#clipPath134)" />
    <path
       id="path135"
       d="m 0,0 c -1.103,0 -2.062,-0.509 -2.63,-1.396 -0.634,-0.989 -0.647,-2.161 -0.038,-3.484 0.952,-2.071 3.036,-3.439 5.243,-4.888 3.228,-2.121 6.567,-4.313 6.88,-8.571 0.205,-2.777 -1.076,-5.331 -2.433,-8.034 -1.171,-2.334 -2.383,-4.749 -2.82,-7.556 -0.436,-2.798 0.107,-4.917 1.615,-6.299 0.621,-0.57 1.487,-1.223 2.683,-1.223 0.562,0 1.962,0.173 2.833,1.78 0.227,0.418 0.381,0.861 0.56,1.374 0.708,2.025 2.025,5.795 8.885,9.977 6.831,4.166 11.439,7.162 13.175,10.713 1.286,2.63 2.29,5.361 0.942,7.521 -0.58,0.928 -1.797,2.034 -4.307,2.035 -1.125,0 -2.481,-0.203 -4.269,-0.639 -1.249,-0.304 -2.525,-0.458 -3.793,-0.458 -3.141,0 -6.402,0.911 -9.969,2.786 -1.638,0.861 -3.38,1.894 -5.064,2.894 C 3.44,-1.063 1.582,0 0,0 m 0,-2.74 c 1.435,0 6.751,-3.666 11.283,-6.048 4.052,-2.13 7.756,-3.1 11.243,-3.1 1.518,0 2.995,0.184 4.441,0.536 1.521,0.371 2.718,0.561 3.621,0.561 2.762,0 2.779,-1.777 0.904,-5.613 -1.403,-2.869 -5.979,-5.819 -12.141,-9.576 C 8.69,-32.481 9.746,-38.711 8.5,-38.711 c -0.199,0 -0.457,0.159 -0.832,0.502 -0.865,0.794 -1.022,2.166 -0.759,3.858 0.873,5.603 5.731,10.067 5.279,16.213 C 11.543,-9.383 1.555,-7.506 -0.179,-3.735 -0.502,-3.034 -0.407,-2.74 0,-2.74"
       style="fill:#24265d;fill-opacity:1;fill-rule:nonzero;stroke:none"
       transform="matrix(1.3333333,0,0,-1.3333333,57.7572,137.572)"
       clip-path="url(#clipPath136)" />
    <path
       id="path137"
       d="m 0,0 c 0.735,-3.017 -5.655,-15.326 -5.655,-15.326 0,0 2.766,4.893 6.277,7.521 1.611,1.206 8.668,5.01 10.689,6.391 3.393,2.319 3.789,5.712 3.789,5.712 0,0 -5.627,-1.092 -9.897,-0.678 C 1.809,3.948 -3.846,6.9 -3.846,6.9 -3.846,6.9 -1.285,5.273 0,0"
       style="fill:#24265d;fill-opacity:1;fill-rule:nonzero;stroke:none"
       transform="matrix(1.3333333,0,0,-1.3333333,77.099067,161.2032)"
       clip-path="url(#clipPath138)" />
    <path
       id="path139"
       d="m 0,0 c 1.986,-2.963 8.483,-2.941 8.483,-2.941 0,0 -0.028,3.478 -5.429,5.429 -1.888,0.682 -4.751,4.525 -4.751,4.525 0,0 0.343,-4.992 1.697,-7.013"
       style="fill:#24265d;fill-opacity:1;fill-rule:nonzero;stroke:none"
       transform="matrix(1.3333333,0,0,-1.3333333,13.531333,142.3516)"
       clip-path="url(#clipPath140)" />
    <path
       id="path141"
       d="m 0,0 c -0.044,0 -0.08,-0.007 -0.107,-0.022 -0.039,-0.021 -0.387,-0.278 -0.458,-2.706 -0.116,-3.997 -1.756,-6.907 -9.564,-9.058 -0.557,-0.153 -0.96,-0.464 -1.231,-0.95 -0.594,-1.066 -0.44,-2.696 -0.097,-3.866 0.379,-1.295 3.048,-1.909 5.873,-2.559 5.202,-1.196 12.327,-2.834 12.935,-10.508 0.266,-3.36 -1.336,-7.284 -3.19,-11.828 -3.791,-9.292 -8.089,-19.823 1.734,-29.596 0.62,-0.618 0.848,-0.592 0.847,-0.59 0.376,0.069 1.119,1.701 1.661,2.894 1.02,2.243 2.418,5.314 5,8.591 1.41,1.788 3.953,2.421 6.196,2.979 2.09,0.52 4.063,1.011 4.537,2.23 0.509,1.31 0.931,2.582 1.339,3.812 1.503,4.529 2.8,8.441 7.338,10.671 2.106,1.036 3.878,1.827 5.442,2.525 8.148,3.638 8.813,3.935 10.942,19.109 0.407,2.908 2.973,6.196 5.034,8.838 0.996,1.276 2.107,2.7 2.443,3.486 C 55.946,-6.49 53.619,-6.695 46.467,-9.059 34.75,-12.933 28.354,-13.392 15.787,-8.246 10.269,-5.987 6.355,-3.574 3.766,-1.978 2.396,-1.133 0.558,0 0,0 m 6.733,-73.396 c -0.845,0 -1.562,0.607 -2.046,1.089 -10.631,10.577 -5.907,22.154 -2.111,31.457 1.771,4.342 3.302,8.092 3.068,11.046 -0.509,6.421 -6.407,7.778 -11.611,8.975 -3.473,0.798 -6.473,1.488 -7.134,3.747 -0.213,0.729 -0.826,3.257 0.246,5.179 0.492,0.883 1.277,1.494 2.271,1.768 7.543,2.078 8.225,4.606 8.307,7.456 0.063,2.153 0.312,3.6 1.357,4.165 1.245,0.668 2.786,-0.281 5.584,-2.006 2.694,-1.661 6.384,-3.936 11.772,-6.142 12.162,-4.979 18.031,-4.56 29.494,-0.771 10.495,3.47 11.525,2.631 12.078,2.179 0.349,-0.285 0.519,-0.711 0.465,-1.169 -0.127,-1.076 -1.13,-2.406 -2.892,-4.665 -1.936,-2.481 -4.345,-5.568 -4.689,-8.022 -2.186,-15.59 -3.218,-16.54 -11.939,-20.434 -1.55,-0.692 -3.306,-1.477 -5.384,-2.498 -3.895,-1.914 -5.03,-5.339 -6.469,-9.674 -0.414,-1.251 -0.843,-2.543 -1.368,-3.894 -0.795,-2.045 -3.298,-2.668 -5.719,-3.27 -2.074,-0.516 -4.217,-1.05 -5.265,-2.379 -2.454,-3.113 -3.802,-6.076 -4.786,-8.239 -0.997,-2.192 -1.656,-3.64 -2.912,-3.87 -0.107,-0.019 -0.213,-0.028 -0.317,-0.028"
       style="fill:#24265d;fill-opacity:1;fill-rule:nonzero;stroke:none"
       transform="matrix(1.3333333,0,0,-1.3333333,49.961733,124.87227)"
       clip-path="url(#clipPath142)" />
    <path
       id="path143"
       d="m 0,0 c -0.506,0 -0.98,-0.2 -1.334,-0.563 -0.56,-0.576 -0.613,-1.319 -0.598,-1.902 l 0.01,-0.351 c 0.118,-4.466 0.265,-10.023 3.459,-13.728 1.188,-1.378 3.226,-2.225 4.726,-2.693 1.791,-0.559 3.752,-0.879 5.381,-0.879 1.739,0 2.918,0.369 3.606,1.127 0.452,0.499 0.665,1.141 0.599,1.808 -0.516,5.245 -4.309,7.644 -8.488,9.832 C 5.963,-6.616 4.298,-4.306 3.197,-2.777 1.864,-0.928 1.196,0 0,0 m 0,-1.712 c 0.8,0 3.646,-5.623 6.567,-7.153 3.99,-2.091 7.146,-4.098 7.578,-8.484 0.072,-0.726 -0.988,-1.055 -2.501,-1.055 -2.824,0 -7.229,1.144 -8.81,2.978 -2.875,3.335 -2.941,8.823 -3.054,13.008 -0.013,0.494 0.065,0.706 0.22,0.706"
       style="fill:#24265d;fill-opacity:1;fill-rule:nonzero;stroke:none"
       transform="matrix(1.3333333,0,0,-1.3333333,8.9985333,124.49827)"
       clip-path="url(#clipPath144)" />
    <path
       id="path145"
       d="M 0,0 C 0.028,0 0.056,-0.001 0.084,-0.002 0.894,-0.028 2.268,-0.281 2.709,-0.755 3.126,-1.203 3.33,-1.798 3.418,-2.39 0.695,-2.48 -2.187,-2.508 -3.78,-2.509 c 0.047,0.462 0.209,0.884 0.494,1.248 C -2.647,-0.441 -1.449,0.019 0,0"
       style="fill:#24265d;fill-opacity:1;fill-rule:nonzero;stroke:none"
       transform="matrix(1.3333333,0,0,-1.3333333,78.3864,232.79053)"
       clip-path="url(#clipPath146)" />
    <path
       id="path147"
       d="m 0,0 -7.306,11.983 -0.32,-0.129 c -0.026,-0.01 -0.054,-0.02 -0.08,-0.03 L -0.407,-0.199 C -0.284,-0.137 -0.147,-0.07 0,0"
       style="fill:#24265d;fill-opacity:1;fill-rule:nonzero;stroke:none"
       transform="matrix(1.3333333,0,0,-1.3333333,115.2212,234.50307)"
       clip-path="url(#clipPath148)" />
    <path
       id="path149"
       d="m 0,0 c -0.004,0 -0.008,0 -0.012,0 -0.045,-0.004 -0.079,-0.043 -0.076,-0.089 l 0.864,-13.392 0.639,0.048 -1.337,13.359 C 0.074,-0.033 0.04,-0.002 0,0"
       style="fill:#24265d;fill-opacity:1;fill-rule:nonzero;stroke:none"
       transform="matrix(1.3333333,0,0,-1.3333333,104.57627,189.29813)"
       clip-path="url(#clipPath150)" />
    <path
       id="path151"
       d="M 0,0 -0.656,-0.049 C -1.226,-0.092 -1.66,-0.626 -1.623,-1.24 l 0.091,-1.495 c 0.266,0.193 0.768,0.424 1.69,0.544 z"
       style="fill:#24265d;fill-opacity:1;fill-rule:nonzero;stroke:none"
       transform="matrix(1.3333333,0,0,-1.3333333,102.53173,207.94827)"
       clip-path="url(#clipPath152)" />
    <path
       id="path153"
       d="m 0,0 c 1.908,-0.108 2.576,-0.401 2.81,-0.587 0,0.005 10e-4,0.009 10e-4,0.013 L 2.683,1.542 c -0.035,0.567 -0.46,1.007 -0.975,1.036 -0.007,0 -0.015,0 -0.023,0.001 -0.034,10e-4 -0.069,0 -0.104,-0.002 L -1.331,2.357 -1.094,0.03 C -0.769,0.031 -0.413,0.023 -0.02,0.001 -0.013,0.001 -0.007,0 0,0"
       style="fill:#24265d;fill-opacity:1;fill-rule:nonzero;stroke:none"
       transform="matrix(1.3333333,0,0,-1.3333333,106.01307,210.96293)"
       clip-path="url(#clipPath154)" />
    <path
       id="path155"
       d="M 0,0 0.492,-0.685 2.002,-1.028 1.921,0.103 Z"
       style="fill:#24265d;fill-opacity:1;fill-rule:nonzero;stroke:none"
       transform="matrix(1.3333333,0,0,-1.3333333,100.52893,215.83667)"
       clip-path="url(#clipPath156)" />
    <path
       id="path157"
       d="m 0,0 c -20.492,-2.349 -36.89,-0.881 -40.053,-0.779 -0.433,0.014 -0.669,0.025 -0.703,0.027 l 0.973,-2.812 c 1.879,0.881 3.945,2.176 5.068,-0.012 3.701,-7.211 7.375,0.95 9.011,-3.505 0.342,-0.93 0.489,-2.137 1.314,-2.475 0.825,-0.338 3.044,3.25 3.829,0.761 1.629,-5.167 3.791,1.549 5.707,-1.913 0.315,-0.569 0.86,-1.443 1.506,-1.557 0.681,-0.121 2.302,2.263 3.593,0.745 l 1.785,0.193 c 1.415,0.152 2.94,0.384 4.66,0.708 4.819,0.909 13.864,4.451 20.228,7.357 l 1.38,0.63 c 3.06,3.443 5.093,6.234 6.057,7.218 C 20.661,3.873 12.117,1.389 0,0"
       style="fill:#24265d;fill-opacity:1;fill-rule:nonzero;stroke:none"
       transform="matrix(1.3333333,0,0,-1.3333333,123.71933,236.11147)"
       clip-path="url(#clipPath158)" />
    <path
       id="path159"
       d="m 0,0 c -6.108,-2.789 -15.309,-6.449 -20.381,-7.406 -1.704,-0.321 -3.24,-0.557 -4.712,-0.716 0.517,-0.291 1.149,-0.484 1.761,-0.612 0.769,-0.082 1.515,-0.167 2.244,-0.25 0.01,-10e-4 0.019,-0.002 0.029,-0.003 0.015,-10e-4 0.025,-10e-4 0.025,-10e-4 l -0.001,-0.002 c 1.794,-0.205 3.384,-0.391 4.841,-0.473 4.992,-0.282 8.433,0.644 13.242,6.13 C -1.886,-2.118 -0.904,-1.01 0,0"
       style="fill:#24265d;fill-opacity:1;fill-rule:nonzero;stroke:none"
       transform="matrix(1.3333333,0,0,-1.3333333,146.64467,241.26547)"
       clip-path="url(#clipPath160)" />
    <path
       id="path161"
       d="M 0,0 -5.438,-0.511 -5.933,6.98 -3.718,7.741 C -3.316,7.84 -2.9,7.66 -2.676,7.288 L 0.734,1.632 C 1.135,0.967 0.735,0.078 0,0 m -8.969,-0.886 c -0.632,-0.066 -1.153,0.517 -1.067,1.194 l 0.546,4.81 c 0.056,0.438 0.358,0.793 0.758,0.892 l 2.319,0.803 0.488,-7.376 z M 4.845,-2.698 -2.454,9.325 C -4.95,8.382 -9.181,6.759 -11.811,5.742 L -12.67,-4.622 c 1.215,0.054 2.532,0.121 3.963,0.206 3.969,0.234 8.247,0.615 12.276,1.042 l 0.714,0.384 c 0.14,0.076 0.331,0.176 0.562,0.292"
       style="fill:#24265d;fill-opacity:1;fill-rule:nonzero;stroke:none"
       transform="matrix(1.3333333,0,0,-1.3333333,108.2188,231.1708)"
       clip-path="url(#clipPath162)" />
    <path
       id="path163"
       d="m 0,0 c 0.605,0.196 1.777,0.569 3.853,0.703 l 4.91,-7.62 C 7.446,-7.105 6.203,-7.349 5.324,-7.573 4.65,-7.745 3.959,-7.414 3.594,-6.741 l -3.826,6.058 C -0.372,-0.425 -0.255,-0.083 0,0 M 7.667,0.675 C 8.203,0.639 8.763,0.536 9.305,0.403 l 4.468,-7.004 C 13.251,-6.589 12.674,-6.59 12.043,-6.61 11.18,-6.638 10.238,-6.724 9.312,-6.843 L 4.43,0.733 C 5.346,0.769 6.416,0.76 7.667,0.675 m 4.39,-1.183 c 0.269,-0.104 0.508,-0.295 0.648,-0.473 0.125,-0.16 3.978,-5.355 3.978,-5.355 0.158,-0.226 -0.013,-0.562 -0.261,-0.511 -0.475,0.098 -1.161,0.182 -2.04,0.225 l -4.357,6.829 c 0.833,-0.248 1.57,-0.535 2.032,-0.715 M -3.056,1.325 4.25,-10.658 c 1.697,0.815 4.95,2.167 8.814,2.718 3.009,0.429 5.035,0.437 5.757,0.422 l -5.56,7.497 c 0,0 -0.888,0.86 -2.149,1.548 C 9.948,2.161 7.946,2.948 5.366,3.032 3.796,3.082 2.131,2.929 0.809,2.774 -0.108,2.486 -1.03,2.151 -1.954,1.769 Z"
       style="fill:#24265d;fill-opacity:1;fill-rule:nonzero;stroke:none"
       transform="matrix(1.3333333,0,0,-1.3333333,109.5548,220.2924)"
       clip-path="url(#clipPath164)" />
    <path
       id="path165"
       d="m 0,0 c 5.548,0.602 10.533,1.279 13.445,1.762 5.204,0.863 17.357,3.077 17.503,3.104 l 0.158,0.029 0.06,0.139 -15.532,-1.452 c 0,0 -0.042,0.003 -0.123,0.005 C 14.998,3.604 12.906,3.633 9.672,3.172 4.901,2.492 1.08,0.582 0,0"
       style="fill:#24265d;fill-opacity:1;fill-rule:nonzero;stroke:none"
       transform="matrix(1.3333333,0,0,-1.3333333,114.13907,235.5464)"
       clip-path="url(#clipPath166)" />
    <path
       id="path167"
       d="m 0,0 c 0.045,-0.485 0.414,-0.857 0.858,-0.882 0.037,-0.002 0.075,-0.002 0.113,0.001 L 1.792,-0.819 1.687,0.642 C 0.403,0.472 0.063,0.09 0,0"
       style="fill:#24265d;fill-opacity:1;fill-rule:nonzero;stroke:none"
       transform="matrix(1.3333333,0,0,-1.3333333,100.52427,212.16707)"
       clip-path="url(#clipPath168)" />
    <path
       id="path169"
       d="m 0,0 c -0.382,0.021 -0.727,0.03 -1.041,0.029 l 0.426,-4.077 c 0.329,0.111 0.642,0.219 0.927,0.319 0.797,0.283 1.594,0.528 2.387,0.746 l -1.782,1.775 1.06,0.08 c 0.311,0.023 0.584,0.212 0.735,0.496 0.019,0.037 0.034,0.011 0.049,0.051 C 2.659,-0.479 2.149,-0.119 0,0"
       style="fill:#24265d;fill-opacity:1;fill-rule:nonzero;stroke:none"
       transform="matrix(1.3333333,0,0,-1.3333333,105.96693,211.32693)"
       clip-path="url(#clipPath170)" />
    <path
       id="path171"
       d="m 0,0 c -0.004,0.041 -0.038,0.072 -0.078,0.074 -0.004,0.001 -0.008,0 -0.012,0 C -0.135,0.07 -0.169,0.031 -0.165,-0.015 l 1.442,-20.642 c 0.274,0.09 0.543,0.179 0.805,0.266 z"
       style="fill:#24265d;fill-opacity:1;fill-rule:nonzero;stroke:none"
       transform="matrix(1.3333333,0,0,-1.3333333,101.94093,189.67973)"
       clip-path="url(#clipPath172)" />
    <path
       id="path173"
       d="m 0,0 c -2.067,0.067 -4.289,-0.194 -6.576,-0.76 0.921,0.064 1.901,0.093 2.919,0.06 2.625,-0.085 4.587,-0.893 5.771,-1.557 1.17,-0.656 1.818,-1.288 1.945,-1.418 0.142,-0.023 0.461,-0.045 0.619,0.078 0.052,0.041 0.082,0.096 0.09,0.167 0.04,0.333 -0.081,0.91 -0.54,1.532 -0.431,0.583 -1.444,1.571 -3.49,1.883 C 0.617,-0.012 0.485,-0.01 0.366,-0.008 0.212,-0.005 0.076,-0.003 0,0"
       style="fill:#24265d;fill-opacity:1;fill-rule:nonzero;stroke:none"
       transform="matrix(1.3333333,0,0,-1.3333333,121.8572,214.88987)"
       clip-path="url(#clipPath174)" />
    <path
       id="path175"
       d="m 0,0 -0.029,-1.194 c 2.656,1.029 7.35,2.83 9.965,3.818 l 1.416,0.57 c 3.553,1.47 7.49,2.43 11.315,2.307 0.204,-0.007 0.846,-0.014 1.071,-0.026 0.006,-10e-4 0.012,-10e-4 0.017,-10e-4 -0.236,0.028 -0.551,0.05 -0.881,0.069 -0.467,0.026 -0.962,0.044 -1.3,0.055 C 18.074,5.711 14.455,4.968 11.161,3.8 9.531,3.223 7.049,2.449 5.385,1.904 Z"
       style="fill:#24265d;fill-opacity:1;fill-rule:nonzero;stroke:none"
       transform="matrix(1.3333333,0,0,-1.3333333,91.648533,221.78187)"
       clip-path="url(#clipPath176)" />
    <path
       id="path177"
       d="M 0,0 C -2.394,1.249 -3.399,-1.572 -5.793,-0.325 -5.874,1.112 -5.914,1.83 -5.994,3.265 -3.6,2.016 -2.596,4.839 -0.201,3.589 -0.121,2.154 -0.081,1.437 0,0"
       style="fill:#24265d;fill-opacity:1;fill-rule:nonzero;stroke:none"
       transform="matrix(1.3333333,0,0,-1.3333333,86.408667,222.29573)"
       clip-path="url(#clipPath178)" />
    <path
       id="path179"
       d="m 0,0 c -0.004,0.041 -0.038,0.072 -0.078,0.074 -0.004,0.001 -0.008,0 -0.012,0 C -0.135,0.07 -0.169,0.031 -0.165,-0.015 l 0.581,-14.793 1.105,0.036 z"
       style="fill:#24265d;fill-opacity:1;fill-rule:nonzero;stroke:none"
       transform="matrix(1.3333333,0,0,-1.3333333,86.5664,216.31787)"
       clip-path="url(#clipPath180)" />
    <path
       id="path181"
       d="m 0,0 c 1.075,3.987 1.923,5.373 1.923,5.373 0,0 0.876,-1.867 1.838,-3.026 0.961,-1.159 2.856,-1.584 2.856,-1.584 0,0 -2.121,-0.82 -3.519,-2.282 -1.387,-1.451 -3.155,-4.363 -3.155,-4.363 0,0 -0.576,3.533 0.057,5.882"
       style="fill:#24265d;fill-opacity:1;fill-rule:nonzero;stroke:none"
       transform="matrix(1.3333333,0,0,-1.3333333,58.2852,195.9656)"
       clip-path="url(#clipPath182)" />
  </g>
</svg>
